<svg width="30" height="30" viewBox="0 0 30 30" fill="none" xmlns="http://www.w3.org/2000/svg">
<g clip-path="url(#clip0_2_135)">
<path d="M8.12505 1.14625C9.53261 1.16814 10.9095 1.56106 12.1166 2.28534C13.3237 3.00961 14.3184 4.03958 15.0001 5.27125C15.6818 4.03958 16.6764 3.00961 17.8835 2.28534C19.0906 1.56106 20.4675 1.16814 21.8751 1.14625C24.1189 1.24374 26.2329 2.22532 27.7553 3.87654C29.2777 5.52776 30.0847 7.71441 30.0001 9.95875C30.0001 18.4275 16.3051 28.2088 15.7226 28.6238L15.0001 29.135L14.2776 28.6238C13.6951 28.2113 5.34058e-05 18.4275 5.34058e-05 9.95875C-0.0846348 7.71441 0.722376 5.52776 2.24478 3.87654C3.76718 2.22532 5.88123 1.24374 8.12505 1.14625ZM15.0001 26.0575C19.0663 23.02 27.5001 15.5575 27.5001 9.95875C27.5855 8.37714 27.0421 6.82591 25.9883 5.64337C24.9346 4.46084 23.456 3.74294 21.8751 3.64625C20.2941 3.74294 18.8155 4.46084 17.7618 5.64337C16.708 6.82591 16.1646 8.37714 16.2501 9.95875H13.7501C13.8355 8.37714 13.2921 6.82591 12.2383 5.64337C11.1846 4.46084 9.70601 3.74294 8.12505 3.64625C6.54409 3.74294 5.0655 4.46084 4.01176 5.64337C2.95801 6.82591 2.4146 8.37714 2.50005 9.95875C2.50005 15.56 10.9338 23.02 15.0001 26.0575Z" fill="white"/>
</g>
<defs>
<clipPath id="clip0_2_135">
<rect width="30" height="30" fill="white" transform="matrix(-1 0 0 1 30 0)"/>
</clipPath>
</defs>
</svg>
