<svg width="30" height="30" viewBox="0 0 30 30" fill="none" xmlns="http://www.w3.org/2000/svg">
<g clip-path="url(#clip0_2_130)">
<path d="M26.25 30H23.75V23.6962C23.749 22.7162 23.3593 21.7767 22.6663 21.0837C21.9733 20.3907 21.0338 20.001 20.0537 20H9.94625C8.96625 20.001 8.02667 20.3907 7.3337 21.0837C6.64074 21.7767 6.25099 22.7162 6.25 23.6962V30H3.75V23.6962C3.75198 22.0535 4.40544 20.4786 5.56703 19.317C6.72862 18.1554 8.30351 17.502 9.94625 17.5H20.0537C21.6965 17.502 23.2714 18.1554 24.433 19.317C25.5946 20.4786 26.248 22.0535 26.25 23.6962V30ZM15 15C13.5166 15 12.0666 14.5601 10.8332 13.736C9.59985 12.9119 8.63856 11.7406 8.0709 10.3701C7.50325 8.99968 7.35472 7.49168 7.64411 6.03682C7.9335 4.58196 8.64781 3.24559 9.6967 2.1967C10.7456 1.1478 12.082 0.433495 13.5368 0.144106C14.9917 -0.145283 16.4997 0.00324202 17.8701 0.570899C19.2406 1.13856 20.4119 2.09985 21.236 3.33322C22.0601 4.56659 22.5 6.01664 22.5 7.5C22.498 9.48851 21.7072 11.395 20.3011 12.8011C18.895 14.2072 16.9885 14.998 15 15ZM15 2.5C14.0111 2.5 13.0444 2.79324 12.2221 3.34265C11.3999 3.89206 10.759 4.67295 10.3806 5.58658C10.0022 6.50021 9.90315 7.50554 10.0961 8.47545C10.289 9.44535 10.7652 10.3363 11.4645 11.0355C12.1637 11.7348 13.0546 12.211 14.0245 12.4039C14.9945 12.5969 15.9998 12.4978 16.9134 12.1194C17.827 11.741 18.6079 11.1001 19.1573 10.2778C19.7068 9.4556 20 8.4889 20 7.5C20 6.17391 19.4732 4.90214 18.5355 3.96446C17.5979 3.02678 16.3261 2.5 15 2.5Z" fill="white"/>
</g>
<defs>
<clipPath id="clip0_2_130">
<rect width="30" height="30" fill="white"/>
</clipPath>
</defs>
</svg>
