<svg width="64" height="64" viewBox="0 0 64 64" fill="none" xmlns="http://www.w3.org/2000/svg">
<path d="M61.3185 10.872C60.5684 9.97184 59.6293 9.24787 58.5679 8.75151C57.5065 8.25515 56.3489 7.99857 55.1772 8H12.0625L11.9505 7.064C11.7213 5.11845 10.7862 3.32462 9.32246 2.02261C7.85874 0.720595 5.96816 0.000911449 4.00915 0L3.41715 0C2.70991 0 2.03163 0.280952 1.53154 0.781049C1.03144 1.28115 0.750488 1.95942 0.750488 2.66667C0.750488 3.37391 1.03144 4.05219 1.53154 4.55229C2.03163 5.05238 2.70991 5.33333 3.41715 5.33333H4.00915C4.66231 5.33342 5.29272 5.57322 5.78081 6.00724C6.26891 6.44127 6.58074 7.03933 6.65715 7.688L10.3265 38.888C10.7074 42.1328 12.2664 45.1248 14.7076 47.296C17.1487 49.4673 20.3021 50.6667 23.5692 50.6667H51.4172C52.1244 50.6667 52.8027 50.3857 53.3028 49.8856C53.8029 49.3855 54.0838 48.7072 54.0838 48C54.0838 47.2928 53.8029 46.6145 53.3028 46.1144C52.8027 45.6143 52.1244 45.3333 51.4172 45.3333H23.5692C21.9186 45.3287 20.31 44.8137 18.9636 43.8588C17.6173 42.904 16.5993 41.5561 16.0492 40H47.8358C50.9619 40.0002 53.9887 38.902 56.3873 36.8972C58.786 34.8924 60.4039 32.1085 60.9585 29.032L63.0518 17.4213C63.2608 16.2694 63.2138 15.0855 62.9143 13.9537C62.6147 12.8219 62.0699 11.7698 61.3185 10.872ZM57.8172 16.4747L55.7212 28.0853C55.3882 29.9333 54.4157 31.6053 52.9741 32.8085C51.5325 34.0117 49.7136 34.6695 47.8358 34.6667H15.2012L12.6918 13.3333H55.1772C55.5689 13.331 55.9563 13.415 56.3119 13.5793C56.6675 13.7437 56.9825 13.9844 57.2346 14.2843C57.4866 14.5842 57.6694 14.9359 57.7701 15.3145C57.8708 15.6931 57.8869 16.0892 57.8172 16.4747Z" fill="#252525"/>
<path d="M19.4172 64C22.3627 64 24.7505 61.6122 24.7505 58.6667C24.7505 55.7211 22.3627 53.3333 19.4172 53.3333C16.4717 53.3333 14.0839 55.7211 14.0839 58.6667C14.0839 61.6122 16.4717 64 19.4172 64Z" fill="#252525"/>
<path d="M46.0838 64C49.0293 64 51.4172 61.6122 51.4172 58.6667C51.4172 55.7211 49.0293 53.3333 46.0838 53.3333C43.1383 53.3333 40.7505 55.7211 40.7505 58.6667C40.7505 61.6122 43.1383 64 46.0838 64Z" fill="#252525"/>
</svg>
