<svg width="64" height="64" viewBox="0 0 64 64" fill="none" xmlns="http://www.w3.org/2000/svg">
<g clip-path="url(#clip0_2_135)">
<path d="M17.3334 2.44534C20.3362 2.49205 23.2735 3.33029 25.8487 4.8754C28.4239 6.42051 30.5457 8.61779 32 11.2453C33.4543 8.61779 35.5762 6.42051 38.1514 4.8754C40.7266 3.33029 43.6639 2.49205 46.6667 2.44534C51.4535 2.65332 55.9635 4.74735 59.2113 8.26996C62.4591 11.7926 64.1807 16.4574 64 21.2453C64 39.312 34.784 60.1787 33.5414 61.064L32 62.1547L30.4587 61.064C29.216 60.184 3.05176e-05 39.312 3.05176e-05 21.2453C-0.180641 16.4574 1.54099 11.7926 4.78878 8.26996C8.03658 4.74735 12.5465 2.65332 17.3334 2.44534ZM32 55.5893C40.6747 49.1093 58.6667 33.1893 58.6667 21.2453C58.849 17.8713 57.6897 14.562 55.4417 12.0392C53.1937 9.51646 50.0394 7.98494 46.6667 7.77868C43.294 7.98494 40.1397 9.51646 37.8917 12.0392C35.6437 14.562 34.4844 17.8713 34.6667 21.2453H29.3334C29.5157 17.8713 28.3564 14.562 26.1084 12.0392C23.8604 9.51646 20.7061 7.98494 17.3334 7.77868C13.9607 7.98494 10.8063 9.51646 8.55833 12.0392C6.31034 14.562 5.15107 17.8713 5.33336 21.2453C5.33336 33.1947 23.3254 49.1093 32 55.5893Z" fill="#252525"/>
</g>
<defs>
<clipPath id="clip0_2_135">
<rect width="64" height="64" fill="white" transform="matrix(-1 0 0 1 64 0)"/>
</clipPath>
</defs>
</svg>
